<svg width="46" height="47" viewBox="0 0 46 47" xmlns="http://www.w3.org/2000/svg"><defs><linearGradient x1="11.746%" y1="9.109%" x2="89.144%" y2="89.234%" id="a"><stop stop-color="#FF795B" offset="0%"/><stop stop-color="#F6484F" stop-opacity=".093" offset="100%"/></linearGradient><linearGradient x1="13.321%" y1="10.74%" x2="89.144%" y2="89.234%" id="b"><stop stop-color="#FF875B" offset="0%"/><stop stop-color="#F6484F" stop-opacity=".093" offset="100%"/></linearGradient><linearGradient x1="34.524%" y1="103.53%" x2="64.489%" y2="-2.737%" id="c"><stop stop-color="#F68748" stop-opacity=".093" offset="0%"/><stop stop-color="#F85352" offset="100%"/></linearGradient><linearGradient x1="1.65%" y1="3.442%" y2="100%" id="d"><stop stop-color="#FF795B" offset="0%"/><stop stop-color="#F6484F" offset="100%"/></linearGradient></defs><g fill="none" fill-rule="evenodd"><path d="M31.692 51.826c-5.907 0-10.868-2.37-15.144-6.208-4.343-3.9-7.955-9.314-7.955-15.3 0-5.878 3.134-12.742 6.966-16.625C19.47 9.733 25.677 9.58 31.69 9.58c4.844 0 9.314.825 12.914 3.516 5.248 3.923 8.644 10.177 8.644 17.223 0 11.877-9.652 21.506-21.558 21.506zm.77-.768c11.056 0 20.018-8.94 20.018-19.97 0-7.06-3.67-11.727-9.21-15.28-3.12-1.997-6.828-3.304-10.808-3.304-7.97 0-14.853 1.722-18.074 8.448-1.247 2.604-1.945 7.056-1.945 10.135 0 5.638.802 9.194 4.568 12.825 3.603 3.473 10.047 7.146 15.452 7.146z" fill="url(#a)" transform="translate(-8 -8)"/><path d="M32.284 50.91c-5.517 0-10.15-2.214-14.144-5.8-4.056-3.64-7.43-8.697-7.43-14.288 0-5.49 2.928-11.9 6.507-15.527 3.652-3.7 9.45-3.842 15.067-3.842 4.524 0 8.7.77 12.06 3.284 4.903 3.664 8.075 9.505 8.075 16.085 0 11.094-9.016 20.087-20.136 20.087zm.72-.718c10.325 0 18.696-8.35 18.696-18.652 0-6.593-3.43-10.95-8.604-14.27-2.91-1.865-6.376-3.086-10.093-3.086-7.444 0-13.872 1.61-16.88 7.89-1.165 2.432-1.817 6.59-1.817 9.466 0 5.265.75 8.587 4.266 11.978 3.364 3.244 9.383 6.674 14.43 6.674z" fill="url(#b)" opacity=".865" transform="rotate(90 31.565 23.18)"/><path d="M31.868 53.077c-6.13 0-11.278-2.46-15.715-6.443-4.507-4.046-8.256-9.665-8.256-15.876 0-6.1 3.253-13.224 7.23-17.253 4.057-4.11 10.5-4.27 16.74-4.27 5.027 0 9.667.858 13.402 3.65 5.446 4.07 8.97 10.56 8.97 17.873 0 12.326-10.017 22.32-22.372 22.32zm.8-.798C44.14 52.28 53.44 43 53.44 31.554c0-7.325-3.808-12.168-9.558-15.854-3.235-2.073-7.085-3.43-11.215-3.43-8.27 0-15.413 1.788-18.756 8.767-1.293 2.703-2.018 7.323-2.018 10.518 0 5.85.833 9.54 4.74 13.31 3.74 3.603 10.426 7.414 16.035 7.414z" fill="url(#c)" opacity=".865" transform="rotate(-120 24.76 29.466)"/><path d="M9.83 6.426H8.57l.19-2.26h.767c.276 0 .476.167.458.382L9.83 6.426zm7.795-.788h-1.898l-.066.788h1.9l-.073.88h-1.9l-.18 2.14c-.025.305.12.42.416.398.448-.036 1.073-.182 1.474-.28l-.04.498c-.397.208-1.693.798-2.802.798-.584 0-.952-.206-.903-.792l.23-2.763H8.356C7.582 9.273 5.05 10.86 4.22 10.86l.045-.52c.665-.38 1.89-1.647 2.356-3.035h-2.1l.073-.88H6.8l.19-2.26H4.784l.073-.88h2.208l.113-1.34H8.75c.11 0 .19.09.18.206l-.096 1.135h2.018c.552 0 .952.335.915.767l-.198 2.374h2.287l.066-.788h-1.047l.074-.88h4.75l-.075.88zM11.373 8.74c-.093 1.107.708 1.534.977 1.606l-.06.514c-.76 0-2.223-.318-2.546-1.816-.128-.597-.02-1.37-.02-1.37h1.74l-.09 1.066zm12.993-5.896c-.5 0-.907-.424-.907-.947 0-.523.405-.947.906-.947.5 0 .907.424.907.947 0 .523-.406.947-.907.947zM21.478 8.75c1.566-1.523 3.314-1.276 3.99-.326.738 1.037-.447 1.822-2.16 1.606-.81-.102-1.44-.554-1.875-1.235l.045-.045m1.016 5.592c2.537 0 3.827-2.234 3.827-3.175 0 2.108-2.054 4.236-4.558 4.236-1.723 0-3.694-1.487-3.268-4.21.164-1.048.64-1.95 1.28-2.66-.693-1.325-.646-2.895-.646-2.895h-.988l.074-.88h.965c.017-.205.04-.403.063-.593h-.98l.075-.88h1.04c.143-.79.293-1.287.293-1.287h1.517c.11-.006.19.08.18.195 0 0-.157.423-.317 1.092h3.194l-.073.88h-3.297c-.03.19-.06.388-.083.593h3.33l-.072.88h-3.313l-.01.304c0 .078-.003.157 0 .237.015.494.08.963.193 1.393 1.39-.873 3.072-1.04 4.224-.22.623.444 1.164 1.335.917 2.072-.29.86-1.354 1.418-2.61 1.418-1.15 0-2.033-.382-2.78-1.125-1.494 2.283-.35 4.624 1.824 4.624zM7.674.298H8.2l-.015.136c-.018.15-.113.235-.366.235H4.557C2.33.67 1.95 2.58 1.826 3.543c-.114.89-.194 1.707-.194 1.707l-.095.953s.024.223.268.223h.645l.376-4.48h1.404c.11 0 .188.09.178.205l-.73 8.71h-1.6l.298-3.553H.757c-.527 0-.797-.357-.752-.898l.12-1.193s.054-.917.208-1.87C.5 2.313 1.08.296 4.28.296h3.394zm7.43 2.67c-.05.123-.16.317.198.317h2.522l-.074.88h-4.348c-.483 0-.502-.436-.307-.806l.597-1.414h1.797s-.32.85-.387 1.022z" fill="url(#d)" transform="translate(10.18 15.928)"/><path d="M12.878 29.583c.263 0 .413-.175.45-.525.017-.384-.09-.58-.32-.588-.24.008-.38.204-.422.588-.02.342.077.517.292.525m.394.013c-.203.133-.372.195-.507.187-.454-.016-.674-.25-.66-.7.073-.492.375-.76.906-.8.558.024.822.354.793.988-.147.893-.63 1.368-1.45 1.426-.152 0-.218-.02-.198-.062-.012-.06.047-.092.176-.1.502-.067.815-.38.942-.938M14.83 29.583c.264 0 .415-.175.452-.525.016-.384-.09-.58-.322-.588-.24.008-.38.204-.42.588-.022.342.075.517.29.525m.395.013c-.203.133-.372.195-.507.187-.454-.016-.674-.25-.66-.7.073-.492.375-.76.906-.8.557.024.82.354.792.988-.147.893-.63 1.368-1.45 1.426-.152 0-.218-.02-.198-.062-.012-.06.047-.092.176-.1.5-.067.814-.38.94-.938M16.61 28.783l-.052.638c.543-.09.827-.287.852-.587.007-.184-.14-.28-.443-.288-.263-.016-.38.062-.356.238zm-.07.838l-.048.59c-.04.182.05.265.266.248.424 0 .652-.15.685-.45.006-.258-.124-.42-.39-.487l-.512.1zm-.515.726l.142-1.7c.005-.05.014-.176.018-.226-.003-.058.047-.088.15-.088h.913c.447.01.665.175.653.5-.033.31-.23.505-.587.59l-.002.01c.414.035.622.222.625.564-.052.433-.346.658-.883.675h-.913c-.104 0-.15-.032-.136-.1l.02-.224zM18.516 28.507c.15.01.224.084.22.226-.02.15-.11.225-.27.225-.168 0-.245-.075-.233-.225.02-.142.114-.217.283-.226m-.064 2.164h-.18c-.08 0-.113-.028-.1-.086l.02-.226.07-.837c.005-.05-.027-.09-.096-.124-.04-.025-.056-.055-.053-.088-.006-.033.025-.058.09-.075l.037-.012c.182-.074.297-.112.345-.112.08-.017.11.067.087.25l-.084 1s-.02.2-.02.226c-.006.058-.045.087-.116.087M20.084 30.67h-.16c-.09 0-.127-.028-.114-.086l.025-.238.143-1.7c.004-.06-.024-.1-.086-.126-.046-.025-.066-.062-.062-.112.062-.076.22-.134.47-.176.072-.008.102.063.09.213l-.16 1.9s-.015.206-.02.24c-.003.057-.046.086-.126.086M19.258 30.67h-.162c-.088 0-.125-.028-.112-.086.002-.033.024-.238.024-.238l.143-1.7c.006-.06-.023-.1-.085-.126-.045-.025-.066-.062-.062-.112.062-.076.22-.134.47-.176.073-.008.103.063.09.213l-.16 1.9-.018.24c-.005.057-.048.086-.127.086M20.897 30.684c-.16-.01-.237-.076-.234-.2.018-.133.108-.21.27-.226.142.017.215.093.22.225-.026.125-.11.192-.256.2M21.51 29.934c.076-.51.366-.784.873-.826.334.025.512.137.535.337-.016.1-.085.15-.204.15-.057.01-.11-.037-.157-.137-.054-.117-.12-.175-.2-.175-.242.025-.384.242-.426.65-.012.334.118.513.387.538.12 0 .244-.053.373-.16.06-.06.103-.09.127-.09.047.01.07.038.065.09-.108.232-.33.357-.667.374-.486-.017-.72-.267-.704-.75M23.466 29.908c-.025.392.098.592.37.6.256-.016.41-.216.457-.6.016-.383-.102-.587-.356-.613-.274.026-.43.23-.47.613m1.246 0c-.082.492-.38.75-.892.776-.525-.025-.782-.284-.773-.776.073-.492.375-.758.906-.8.507.042.76.308.76.8M27.157 30.67h-.183c-.072 0-.105-.028-.1-.086.003-.033.01-.155.018-.238l.06-.713c.008-.183-.064-.28-.216-.288-.193.017-.308.11-.346.276l-.06.726c-.008.083-.014.205-.017.238-.005.058-.043.087-.115.087h-.18c-.088 0-.125-.028-.112-.086.002-.033.02-.155.028-.238l.06-.713c.006-.183-.065-.28-.216-.288-.193.017-.31.11-.347.276l-.06.726-.018.238c-.005.058-.047.087-.127.087h-.165c-.09 0-.126-.028-.113-.086.004-.033.02-.155.028-.238l.065-.775c.008-.09-.02-.15-.08-.175-.04-.016-.057-.05-.053-.1.015-.082.152-.145.41-.187.083-.017.11.07.087.262h.012c.118-.166.29-.254.514-.262.198.008.33.096.397.262.135-.175.318-.262.55-.262.325.017.483.187.47.513l-.06.726-.016.238c-.003.058-.042.087-.113.087" fill="#717171"/></g></svg>